<svg xmlns="http://www.w3.org/2000/svg" viewBox="0 0 237.5 250.65"><defs><style>.cls-1{fill:#b762db;}.cls-2{fill:#fff;}.cls-3{fill:#b3b3b3;}</style></defs><g id="Layer_2" data-name="Layer 2"><g id="_1" data-name="1"><rect class="cls-1" width="237.5" height="250" rx="12"/><path class="cls-2" d="M0,158.37H237.5a0,0,0,0,1,0,0v80.28a12,12,0,0,1-12,12H12a12,12,0,0,1-12-12V158.37A0,0,0,0,1,0,158.37Z"/><path class="cls-1" d="M221.32,190c-2.68-2.61-6.66-2.14-9.12.75l-1,1.14-1-1.14c-2.45-2.89-6.44-3.36-9.11-.75a8.8,8.8,0,0,0-.48,11.6l9.44,11.15a1.41,1.41,0,0,0,2.22,0l9.44-11.15a8.82,8.82,0,0,0-.47-11.6Z"/><rect class="cls-1" x="10.05" y="182.33" width="40" height="10"/><rect class="cls-3" x="10.05" y="200.76" width="30" height="7.5"/></g></g></svg>