<svg xmlns="http://www.w3.org/2000/svg" viewBox="0 0 237.54 179.77"><defs><style>.cls-1{fill:#b762db;}.cls-2{fill:#f2f2f2;}.cls-3{fill:gray;}</style></defs><g id="Layer_2" data-name="Layer 2"><g id="_2" data-name="2"><rect class="cls-1" width="237.5" height="27.69" rx="5"/><rect class="cls-1" y="50.7" width="237.5" height="27.69" rx="5"/><rect class="cls-1" y="101.39" width="237.5" height="27.69" rx="5"/><rect class="cls-1" y="152.08" width="237.5" height="27.69" rx="5"/><path class="cls-2" d="M199.54,0h33a5,5,0,0,1,5,5V22.69a5,5,0,0,1-5,5h-33a2,2,0,0,1-2-2V2a2,2,0,0,1,2-2Z"/><path class="cls-2" d="M199.54,50.69h33a5,5,0,0,1,5,5V73.38a5,5,0,0,1-5,5h-33a2,2,0,0,1-2-2V52.69A2,2,0,0,1,199.54,50.69Z"/><path class="cls-2" d="M199.54,101.39h33a5,5,0,0,1,5,5v17.69a5,5,0,0,1-5,5h-33a2,2,0,0,1-2-2V103.39A2,2,0,0,1,199.54,101.39Z"/><path class="cls-2" d="M199.54,152.08h33a5,5,0,0,1,5,5v17.69a5,5,0,0,1-5,5h-33a2,2,0,0,1-2-2V154.08a2,2,0,0,1,2-2Z"/><path class="cls-3" d="M225,13.85a7.5,7.5,0,1,1-7.5-7.5A7.5,7.5,0,0,1,225,13.85Zm-8.37,4,5.56-5.56a.49.49,0,0,0,0-.69l-.68-.68a.48.48,0,0,0-.68,0l-4.54,4.53-2.12-2.11a.48.48,0,0,0-.68,0l-.69.68a.48.48,0,0,0,0,.68L216,17.82a.48.48,0,0,0,.68,0Z"/><path class="cls-3" d="M225,64.54a7.5,7.5,0,1,1-7.5-7.5A7.5,7.5,0,0,1,225,64.54Zm-8.37,4L222.23,63a.49.49,0,0,0,0-.69l-.68-.68a.48.48,0,0,0-.68,0l-4.54,4.54L214.21,64a.48.48,0,0,0-.68,0l-.69.68a.49.49,0,0,0,0,.69L216,68.51a.48.48,0,0,0,.68,0Z"/><path class="cls-3" d="M225,115.23a7.5,7.5,0,1,1-7.5-7.5A7.5,7.5,0,0,1,225,115.23Zm-8.37,4,5.56-5.57a.48.48,0,0,0,0-.68l-.68-.69a.48.48,0,0,0-.68,0l-4.54,4.54-2.12-2.12a.48.48,0,0,0-.68,0l-.69.69a.48.48,0,0,0,0,.68l3.15,3.15a.5.5,0,0,0,.68,0Z"/><path class="cls-3" d="M225,165.93a7.5,7.5,0,1,1-7.5-7.5A7.5,7.5,0,0,1,225,165.93Zm-8.37,4,5.56-5.57a.48.48,0,0,0,0-.68l-.68-.69a.5.5,0,0,0-.68,0l-4.54,4.54-2.12-2.12a.5.5,0,0,0-.68,0l-.69.69a.48.48,0,0,0,0,.68L216,169.9a.48.48,0,0,0,.68,0Z"/></g></g></svg>