<svg xmlns="http://www.w3.org/2000/svg" viewBox="0 0 237.81 81.92"><defs><style>.cls-1{fill:#b762db;}.cls-2{fill:#9356dc;}</style></defs><g id="Layer_2" data-name="Layer 2"><g id="_3" data-name="3"><path class="cls-1" d="M0,52.36H237.5a0,0,0,0,1,0,0V76.92a5,5,0,0,1-5,5H5a5,5,0,0,1-5-5V52.36a0,0,0,0,1,0,0Z"/><path class="cls-2" d="M236.44,13,230.12,1.64A3,3,0,0,0,227.48,0H188.13a3,3,0,0,0-2.64,1.64L179.16,13c-3.26,5.85-.37,14,5.73,14.91a10,10,0,0,0,1.34.1,9.21,9.21,0,0,0,7.19-3.62,8.94,8.94,0,0,0,14.37,0,9,9,0,0,0,14.38,0A9.24,9.24,0,0,0,229.36,28a9.83,9.83,0,0,0,1.34-.1C236.81,27,239.72,18.82,236.44,13Zm-7.06,18.51a11.11,11.11,0,0,1-2.87-.41V42H189.1V31.06a10.84,10.84,0,0,1-4.63.28,10.55,10.55,0,0,1-1.59-.39V52.46A3.32,3.32,0,0,0,186,56h43.65a3.32,3.32,0,0,0,3.11-3.5V31a8,8,0,0,1-1.6.39,11.62,11.62,0,0,1-1.77.13Z"/><path class="cls-2" d="M61.05,29.86h-1.5L49.35,17.11a6,6,0,0,0-4.68-2.25H24.61A6,6,0,0,0,19,18.63L14.55,30.07a6,6,0,0,0-4.5,5.79v10.5a1.5,1.5,0,0,0,1.5,1.5h4.5a9,9,0,1,0,18,0h12a9,9,0,0,0,18,0h4.5a1.5,1.5,0,0,0,1.5-1.5v-7.5A9,9,0,0,0,61.05,29.86Zm-36,22.5a4.5,4.5,0,1,1,4.5-4.5A4.51,4.51,0,0,1,25.05,52.36Zm6.75-22.5H21l3.6-9H31.8Zm4.5,0v-9h8.37l7.2,9Zm18.75,22.5a4.5,4.5,0,1,1,4.5-4.5A4.51,4.51,0,0,1,55.05,52.36Z"/></g></g></svg>